<svg xmlns="http://www.w3.org/2000/svg" viewBox="0 0 200 200" width="200" height="200">
  <defs>
    <linearGradient id="cupGrad" x1="0%" y1="0%" x2="100%" y2="100%">
      <stop offset="0%" style="stop-color:#4a2c2a;stop-opacity:1" />
      <stop offset="100%" style="stop-color:#2d1810;stop-opacity:1" />
    </linearGradient>
    <linearGradient id="steamGrad" x1="0%" y1="100%" x2="0%" y2="0%">
      <stop offset="0%" style="stop-color:#d4a574;stop-opacity:0.8" />
      <stop offset="100%" style="stop-color:#d4a574;stop-opacity:0" />
    </linearGradient>
  </defs>
  
  <!-- Background circle -->
  <circle cx="100" cy="100" r="95" fill="#f5e6d3" stroke="#4a2c2a" stroke-width="3"/>
  
  <!-- Coffee cup body -->
  <path d="M45 80 L50 150 Q50 165 65 165 L135 165 Q150 165 150 150 L155 80 Z" 
        fill="url(#cupGrad)" stroke="#2d1810" stroke-width="2"/>
  
  <!-- Cup handle -->
  <path d="M155 95 Q180 95 180 115 Q180 135 155 135" 
        fill="none" stroke="#2d1810" stroke-width="8" stroke-linecap="round"/>
  
  <!-- Coffee surface -->
  <ellipse cx="100" cy="80" rx="55" ry="12" fill="#5d3a30"/>
  <ellipse cx="100" cy="80" rx="50" ry="10" fill="#6b4438"/>
  
  <!-- Steam lines -->
  <path d="M70 55 Q75 45 70 35" fill="none" stroke="url(#steamGrad)" stroke-width="3" stroke-linecap="round">
    <animate attributeName="d" values="M70 55 Q75 45 70 35;M70 52 Q65 42 70 32;M70 55 Q75 45 70 35" dur="3s" repeatCount="indefinite"/>
  </path>
  <path d="M100 50 Q105 38 100 28" fill="none" stroke="url(#steamGrad)" stroke-width="3" stroke-linecap="round">
    <animate attributeName="d" values="M100 50 Q105 38 100 28;M100 47 Q95 35 100 25;M100 50 Q105 38 100 28" dur="3s" repeatCount="indefinite" begin="0.5s"/>
  </path>
  <path d="M130 55 Q135 45 130 35" fill="none" stroke="url(#steamGrad)" stroke-width="3" stroke-linecap="round">
    <animate attributeName="d" values="M130 55 Q135 45 130 35;M130 52 Q125 42 130 32;M130 55 Q135 45 130 35" dur="3s" repeatCount="indefinite" begin="1s"/>
  </path>
  
  <!-- Code brackets </> on the cup -->
  <g transform="translate(100, 130)" fill="#f5e6d3" font-family="monospace" font-weight="bold" font-size="28" text-anchor="middle">
    <text x="-32" y="5">&lt;</text>
    <text x="0" y="5">/</text>
    <text x="28" y="5">&gt;</text>
  </g>
</svg>
