<svg xmlns="http://www.w3.org/2000/svg" viewBox="0 0 120 120" width="120" height="120">
  <defs>
    <linearGradient id="cupGrad" x1="0%" y1="0%" x2="100%" y2="100%">
      <stop offset="0%" style="stop-color:#4a2c2a;stop-opacity:1" />
      <stop offset="100%" style="stop-color:#2d1810;stop-opacity:1" />
    </linearGradient>
    <linearGradient id="steamGrad" x1="0%" y1="100%" x2="0%" y2="0%">
      <stop offset="0%" style="stop-color:#d4a574;stop-opacity:0.8" />
      <stop offset="100%" style="stop-color:#d4a574;stop-opacity:0" />
    </linearGradient>
  </defs>
  
  <!-- Background rectangle -->
  <rect x="0" y="0" width="120" height="120" rx="12" fill="#f5e6d3" stroke="#4a2c2a" stroke-width="3"/>
  
  <!-- Coffee cup body -->
  <path d="M25 55 L28 95 Q28 105 38 105 L82 105 Q92 105 92 95 L95 55 Z" 
        fill="url(#cupGrad)" stroke="#2d1810" stroke-width="2"/>
  
  <!-- Cup handle -->
  <path d="M95 62 Q110 62 110 77 Q110 92 95 92" 
        fill="none" stroke="#2d1810" stroke-width="5" stroke-linecap="round"/>
  
  <!-- Coffee surface -->
  <ellipse cx="60" cy="55" rx="35" ry="8" fill="#5d3a30"/>
  <ellipse cx="60" cy="55" rx="32" ry="7" fill="#6b4438"/>
  
  <!-- Steam lines -->
  <path d="M40 35 Q44 27 40 20" fill="none" stroke="url(#steamGrad)" stroke-width="3" stroke-linecap="round">
    <animate attributeName="d" values="M40 35 Q44 27 40 20;M40 32 Q36 24 40 17;M40 35 Q44 27 40 20" dur="3s" repeatCount="indefinite"/>
  </path>
  <path d="M60 30 Q64 20 60 13" fill="none" stroke="url(#steamGrad)" stroke-width="3" stroke-linecap="round">
    <animate attributeName="d" values="M60 30 Q64 20 60 13;M60 27 Q56 17 60 10;M60 30 Q64 20 60 13" dur="3s" repeatCount="indefinite" begin="0.5s"/>
  </path>
  <path d="M80 35 Q84 27 80 20" fill="none" stroke="url(#steamGrad)" stroke-width="3" stroke-linecap="round">
    <animate attributeName="d" values="M80 35 Q84 27 80 20;M80 32 Q76 24 80 17;M80 35 Q84 27 80 20" dur="3s" repeatCount="indefinite" begin="1s"/>
  </path>
  
  <!-- Code brackets </> on the cup -->
  <g transform="translate(60, 80)" fill="#f5e6d3" font-family="monospace" font-weight="bold" font-size="20" text-anchor="middle">
    <text x="-20" y="5">&lt;</text>
    <text x="0" y="5">/</text>
    <text x="18" y="5">&gt;</text>
  </g>
</svg>
